<svg width="214" height="74" viewBox="0 0 214 74" fill="none" xmlns="http://www.w3.org/2000/svg">
<g id="Group 1" style="mix-blend-mode:hard-light">
<g id="CLOCKER" style="mix-blend-mode:hard-light">
<path d="M98.915 32.88C99.0317 32.8333 99.125 32.8333 99.195 32.88C99.2883 32.9033 99.335 32.985 99.335 33.125L99.405 34.49C99.4283 34.7933 99.3 35.0033 99.02 35.12C98.4367 35.3767 97.8417 35.5633 97.235 35.68C96.6283 35.7967 96.01 35.855 95.38 35.855C92.5567 35.855 90.2583 34.6183 88.485 32.145C87.6917 30.9317 87.0967 29.5783 86.7 28.085C86.3267 26.5683 86.14 25.04 86.14 23.5C86.14 22.1 86.3267 20.6533 86.7 19.16C87.0967 17.6433 87.6917 16.2783 88.485 15.065C90.2583 12.5917 92.5567 11.355 95.38 11.355C96.01 11.355 96.6283 11.4133 97.235 11.53C97.8417 11.6467 98.4367 11.8333 99.02 12.09C99.3 12.2067 99.4283 12.4167 99.405 12.72L99.335 14.085C99.335 14.225 99.2883 14.3183 99.195 14.365C99.125 14.3883 99.0317 14.3767 98.915 14.33C98.3783 14.0967 97.83 13.91 97.27 13.77C96.7333 13.63 96.1033 13.56 95.38 13.56C93.3733 13.56 91.705 14.5983 90.375 16.675C89.7683 17.6783 89.3133 18.81 89.01 20.07C88.73 21.3067 88.59 22.45 88.59 23.5C88.59 24.69 88.73 25.915 89.01 27.175C89.3133 28.4117 89.7683 29.5317 90.375 30.535C91.705 32.6117 93.3733 33.65 95.38 33.65C96.1733 33.65 96.8267 33.58 97.34 33.44C97.8533 33.3 98.3783 33.1133 98.915 32.88ZM117.395 33.3C117.722 33.3 117.885 33.4633 117.885 33.79V35.015C117.885 35.3417 117.722 35.505 117.395 35.505H106.58C106.253 35.505 105.997 35.4933 105.81 35.47C105.647 35.47 105.518 35.4233 105.425 35.33C105.355 35.26 105.308 35.1317 105.285 34.945C105.285 34.7583 105.285 34.5017 105.285 34.175V12.125C105.285 11.7983 105.448 11.635 105.775 11.635H107.385C107.712 11.635 107.875 11.7983 107.875 12.125V33.3H117.395ZM135.385 23.605C135.432 31.9117 132.97 36.065 128 36.065C123.03 36.065 120.545 31.9117 120.545 23.605C120.545 15.2983 123.03 11.145 128 11.145C132.97 11.145 135.432 15.2983 135.385 23.605ZM127.965 33.86C131.302 33.86 132.958 30.4417 132.935 23.605C132.958 16.7683 131.302 13.35 127.965 13.35C124.628 13.35 122.972 16.7683 122.995 23.605C122.972 30.4417 124.628 33.86 127.965 33.86ZM151.415 32.88C151.532 32.8333 151.625 32.8333 151.695 32.88C151.788 32.9033 151.835 32.985 151.835 33.125L151.905 34.49C151.928 34.7933 151.8 35.0033 151.52 35.12C150.937 35.3767 150.342 35.5633 149.735 35.68C149.128 35.7967 148.51 35.855 147.88 35.855C145.057 35.855 142.758 34.6183 140.985 32.145C140.192 30.9317 139.597 29.5783 139.2 28.085C138.827 26.5683 138.64 25.04 138.64 23.5C138.64 22.1 138.827 20.6533 139.2 19.16C139.597 17.6433 140.192 16.2783 140.985 15.065C142.758 12.5917 145.057 11.355 147.88 11.355C148.51 11.355 149.128 11.4133 149.735 11.53C150.342 11.6467 150.937 11.8333 151.52 12.09C151.8 12.2067 151.928 12.4167 151.905 12.72L151.835 14.085C151.835 14.225 151.788 14.3183 151.695 14.365C151.625 14.3883 151.532 14.3767 151.415 14.33C150.878 14.0967 150.33 13.91 149.77 13.77C149.233 13.63 148.603 13.56 147.88 13.56C145.873 13.56 144.205 14.5983 142.875 16.675C142.268 17.6783 141.813 18.81 141.51 20.07C141.23 21.3067 141.09 22.45 141.09 23.5C141.09 24.69 141.23 25.915 141.51 27.175C141.813 28.4117 142.268 29.5317 142.875 30.535C144.205 32.6117 145.873 33.65 147.88 33.65C148.673 33.65 149.327 33.58 149.84 33.44C150.353 33.3 150.878 33.1133 151.415 32.88ZM162.02 24.13L159.815 27.455V35.015C159.815 35.3417 159.652 35.505 159.325 35.505H157.785C157.458 35.505 157.295 35.3417 157.295 35.015V12.125C157.295 11.7983 157.458 11.635 157.785 11.635H159.325C159.652 11.635 159.815 11.7983 159.815 12.125V23.605L161.18 21.4L167.235 12.125C167.492 11.7983 167.795 11.635 168.145 11.635H170.035C170.152 11.635 170.222 11.6933 170.245 11.81C170.268 11.9033 170.233 12.0083 170.14 12.125L163.525 22.1L170.805 35.015C170.968 35.3417 170.933 35.505 170.7 35.505H168.88C168.693 35.505 168.518 35.47 168.355 35.4C168.215 35.33 168.098 35.2017 168.005 35.015L162.02 24.13ZM175.39 35.54C174.9 35.54 174.608 35.4933 174.515 35.4C174.445 35.33 174.41 35.05 174.41 34.56V12.545C174.41 12.1017 174.445 11.845 174.515 11.775C174.608 11.6817 174.877 11.635 175.32 11.635H186.205C186.532 11.635 186.695 11.7983 186.695 12.125V13.35C186.695 13.6767 186.532 13.84 186.205 13.84H176.965V22.03H185.68C186.007 22.03 186.17 22.1933 186.17 22.52V23.78C186.17 24.1067 186.007 24.27 185.68 24.27H176.965V33.3H186.625C186.952 33.3 187.115 33.4633 187.115 33.79V35.05C187.115 35.3767 186.952 35.54 186.625 35.54H175.39ZM202.095 18.46C202.095 17.55 201.978 16.8383 201.745 16.325C201.535 15.8117 201.173 15.3567 200.66 14.96C200.17 14.5633 199.575 14.2717 198.875 14.085C198.175 13.8983 197.125 13.805 195.725 13.805H193.765V23.255H195.795C196.752 23.255 197.592 23.1617 198.315 22.975C199.062 22.7883 199.727 22.4967 200.31 22.1C200.893 21.7033 201.337 21.19 201.64 20.56C201.943 19.93 202.095 19.23 202.095 18.46ZM206.26 35.015C206.307 35.1317 206.307 35.2367 206.26 35.33C206.213 35.4467 206.12 35.505 205.98 35.505H204.16C203.81 35.505 203.553 35.3417 203.39 35.015C202.247 32.9383 201.407 31.4333 200.87 30.5C200.357 29.5433 199.797 28.505 199.19 27.385C198.817 26.7083 198.432 25.985 198.035 25.215C197.475 25.3083 196.927 25.3783 196.39 25.425C195.853 25.4483 195.317 25.46 194.78 25.46H193.765V35.015C193.765 35.3417 193.602 35.505 193.275 35.505H191.7C191.373 35.505 191.21 35.3417 191.21 35.015V12.685C191.21 12.4283 191.21 12.23 191.21 12.09C191.233 11.95 191.28 11.845 191.35 11.775C191.42 11.705 191.525 11.67 191.665 11.67C191.805 11.6467 192.003 11.635 192.26 11.635H196.95C198.28 11.635 199.423 11.8217 200.38 12.195C201.36 12.545 202.165 13.035 202.795 13.665C203.448 14.2717 203.927 14.96 204.23 15.73C204.557 16.5 204.72 17.41 204.72 18.46C204.72 19.16 204.638 19.8133 204.475 20.42C204.335 21.0033 204.043 21.5867 203.6 22.17C203.18 22.7533 202.69 23.2433 202.13 23.64C201.593 24.0133 200.952 24.305 200.205 24.515L206.26 35.015Z" fill="black"/>
</g>
<g id="calendar bLOCKER" style="mix-blend-mode:hard-light">
<path d="M99.9619 47.2812L99.874 48.0371C99.3818 47.9668 98.96 47.9316 98.6084 47.9316C97.7998 47.9316 97.1318 48.1777 96.6045 48.6699C96.0771 49.1504 95.7139 49.7246 95.5146 50.3926C95.3271 51.0488 95.2334 51.7812 95.2334 52.5898C95.2334 52.9648 95.2568 53.2988 95.3037 53.5918C95.3506 53.8848 95.4326 54.1719 95.5498 54.4531C95.6787 54.7344 95.8721 54.957 96.1299 55.1211C96.3994 55.2734 96.7275 55.3496 97.1143 55.3496C97.6299 55.3496 98.2861 55.25 99.083 55.0508C99.3291 54.957 99.5225 54.9102 99.6631 54.9102C99.9443 54.9102 100.114 55.2383 100.173 55.8945C99.1416 56.2227 98.1865 56.3867 97.3076 56.3867C96.0303 56.3867 95.1631 56.0762 94.7061 55.4551C94.2607 54.8223 94.0381 53.8027 94.0381 52.3965C94.0381 51.5762 94.0908 50.8613 94.1963 50.252C94.3135 49.6309 94.5127 49.0566 94.7939 48.5293C95.0752 47.9902 95.4795 47.5801 96.0068 47.2988C96.5459 47.0176 97.2021 46.877 97.9756 46.877C98.8428 46.877 99.5049 47.0117 99.9619 47.2812ZM101.702 48.4062L101.351 47.5098C101.655 47.2051 102.042 46.9648 102.511 46.7891C102.979 46.6016 103.442 46.5078 103.899 46.5078C105.88 46.5078 106.87 48.2188 106.87 51.6406C106.87 52.1094 106.841 52.8008 106.782 53.7148C106.735 54.6289 106.712 55.3145 106.712 55.7715C106.618 56.1348 106.437 56.3164 106.167 56.3164C105.956 56.3164 105.763 56.2109 105.587 56C105.411 55.7891 105.323 55.5547 105.323 55.2969C105.323 55.2148 105.329 55.1562 105.341 55.1211C104.614 55.8242 103.841 56.1758 103.021 56.1758C102.399 56.1758 101.854 55.9531 101.386 55.5078C100.929 55.0508 100.7 54.5 100.7 53.8555C100.7 52.7656 101.122 51.7812 101.966 50.9023C102.821 50.0234 103.788 49.584 104.866 49.584C104.913 49.584 104.96 49.5898 105.007 49.6016C105.054 49.6016 105.106 49.6074 105.165 49.6191C105.235 49.6309 105.288 49.6367 105.323 49.6367C105.229 48.2656 104.685 47.5801 103.688 47.5801C103.103 47.5801 102.44 47.8555 101.702 48.4062ZM105.376 53.9082C105.399 53.0879 105.411 52.4668 105.411 52.0449C105.411 51.6934 105.399 51.2012 105.376 50.5684H105.235C104.403 50.5801 103.642 50.8906 102.95 51.5C102.271 52.1094 101.931 52.8477 101.931 53.7148C101.931 54.0898 102.042 54.3887 102.265 54.6113C102.499 54.834 102.78 54.9453 103.108 54.9453C103.624 54.9453 104.38 54.5996 105.376 53.9082ZM108.681 43.9414L109.489 44.1172L109.876 55.4902C109.771 55.8535 109.565 56.0352 109.261 56.0352C109.05 56.0352 108.845 55.9531 108.646 55.7891C108.458 55.6133 108.341 55.4023 108.294 55.1562L108.681 43.9414ZM118.401 54.2949L118.577 55.0684C118.062 55.2559 117.294 55.4668 116.274 55.7012C115.267 55.9238 114.517 56.0352 114.024 56.0352C113.521 56.0352 113.081 55.8711 112.706 55.543C112.331 55.2031 112.05 54.7754 111.862 54.2598C111.675 53.7324 111.534 53.2168 111.44 52.7129C111.358 52.1973 111.317 51.6934 111.317 51.2012C111.317 48.2715 112.642 46.8066 115.29 46.8066C115.923 46.8066 116.479 47.0117 116.96 47.4219C117.44 47.8203 117.681 48.3418 117.681 48.9863C117.681 49.3379 117.581 49.6484 117.382 49.918C117.194 50.1875 116.96 50.4043 116.679 50.5684C116.409 50.7207 116.058 50.8613 115.624 50.9902C115.202 51.1191 114.827 51.2129 114.499 51.2715C114.171 51.3301 113.778 51.3945 113.321 51.4648C112.864 51.5352 112.548 51.5879 112.372 51.623C112.384 51.9629 112.401 52.2617 112.425 52.5195C112.46 52.7773 112.519 53.0586 112.601 53.3633C112.694 53.6562 112.812 53.9023 112.952 54.1016C113.104 54.2891 113.31 54.4473 113.567 54.5762C113.825 54.7051 114.13 54.7695 114.481 54.7695C114.903 54.7695 115.419 54.7344 116.028 54.6641C116.638 54.582 117.177 54.5 117.646 54.418C118.126 54.3359 118.378 54.2949 118.401 54.2949ZM112.442 50.5332C114.036 50.0762 115.343 49.5957 116.362 49.0918C116.28 48.7051 116.169 48.4238 116.028 48.248C115.888 48.0723 115.677 47.9844 115.396 47.9844C114.681 47.9844 114.03 48.2305 113.444 48.7227C112.87 49.2148 112.536 49.8184 112.442 50.5332ZM120.476 48.9688L120.546 55.9297C120.37 56.0234 120.159 56.0703 119.913 56.0703C119.726 56.0703 119.515 56.041 119.28 55.9824C119.315 55.2441 119.339 53.791 119.351 51.623C119.362 49.4551 119.409 47.8496 119.491 46.8066L120.282 46.9824L120.335 47.9668C120.956 47.3105 121.671 46.9824 122.479 46.9824C122.89 46.9824 123.218 47.0117 123.464 47.0703C123.71 47.1289 123.944 47.2754 124.167 47.5098C124.401 47.7324 124.577 48.0312 124.694 48.4062C124.812 48.7812 124.917 49.3203 125.011 50.0234C125.104 50.7148 125.169 51.5293 125.204 52.4668C125.251 53.3926 125.28 54.5645 125.292 55.9824C125.222 56.0059 125.087 56.0176 124.888 56.0176C124.466 56.0176 124.138 55.9648 123.903 55.8594C123.856 55.6719 123.833 55.3613 123.833 54.9277C123.833 54.7051 123.839 54.2891 123.851 53.6797C123.874 53.0586 123.886 52.5781 123.886 52.2383C123.886 51.6758 123.862 51.1836 123.815 50.7617C123.78 50.3398 123.704 49.9238 123.587 49.5137C123.481 49.1035 123.312 48.7871 123.077 48.5645C122.854 48.3418 122.573 48.2305 122.233 48.2305C121.847 48.2305 121.542 48.2598 121.319 48.3184C121.108 48.377 120.956 48.4473 120.862 48.5293C120.78 48.6113 120.651 48.7578 120.476 48.9688ZM133.044 56.457L132.077 56.2637C132.077 56.0293 132.071 55.8535 132.06 55.7363C131.438 56.1348 130.782 56.334 130.091 56.334C129.024 56.334 128.192 55.877 127.595 54.9629C127.009 54.0488 126.716 53.0117 126.716 51.8516C126.716 51.2539 126.757 50.6914 126.839 50.1641C126.933 49.6367 127.085 49.0977 127.296 48.5469C127.519 47.9844 127.858 47.5391 128.315 47.2109C128.784 46.8828 129.347 46.7188 130.003 46.7188C130.647 46.7188 131.251 46.877 131.813 47.1934C131.907 45.9512 131.954 44.6973 131.954 43.4316C131.954 42.8574 131.948 42.4355 131.937 42.166C132.499 42.2715 132.944 42.4062 133.272 42.5703L133.044 56.457ZM131.919 54.5762L131.866 48.916C131.726 48.623 131.503 48.3945 131.198 48.2305C130.905 48.0547 130.589 47.9668 130.249 47.9668C129.792 47.9668 129.399 48.1133 129.071 48.4062C128.755 48.6992 128.526 49.0918 128.386 49.584C128.257 50.0645 128.163 50.5156 128.104 50.9375C128.058 51.3594 128.034 51.8047 128.034 52.2734C128.034 54.2656 128.702 55.2617 130.038 55.2617C130.483 55.2617 130.888 55.2031 131.251 55.0859C131.626 54.957 131.849 54.7871 131.919 54.5762ZM135.329 48.4062L134.978 47.5098C135.282 47.2051 135.669 46.9648 136.138 46.7891C136.606 46.6016 137.069 46.5078 137.526 46.5078C139.507 46.5078 140.497 48.2188 140.497 51.6406C140.497 52.1094 140.468 52.8008 140.409 53.7148C140.362 54.6289 140.339 55.3145 140.339 55.7715C140.245 56.1348 140.063 56.3164 139.794 56.3164C139.583 56.3164 139.39 56.2109 139.214 56C139.038 55.7891 138.95 55.5547 138.95 55.2969C138.95 55.2148 138.956 55.1562 138.968 55.1211C138.241 55.8242 137.468 56.1758 136.647 56.1758C136.026 56.1758 135.481 55.9531 135.013 55.5078C134.556 55.0508 134.327 54.5 134.327 53.8555C134.327 52.7656 134.749 51.7812 135.593 50.9023C136.448 50.0234 137.415 49.584 138.493 49.584C138.54 49.584 138.587 49.5898 138.634 49.6016C138.681 49.6016 138.733 49.6074 138.792 49.6191C138.862 49.6309 138.915 49.6367 138.95 49.6367C138.856 48.2656 138.312 47.5801 137.315 47.5801C136.729 47.5801 136.067 47.8555 135.329 48.4062ZM139.003 53.9082C139.026 53.0879 139.038 52.4668 139.038 52.0449C139.038 51.6934 139.026 51.2012 139.003 50.5684H138.862C138.03 50.5801 137.269 50.8906 136.577 51.5C135.897 52.1094 135.558 52.8477 135.558 53.7148C135.558 54.0898 135.669 54.3887 135.892 54.6113C136.126 54.834 136.407 54.9453 136.735 54.9453C137.251 54.9453 138.007 54.5996 139.003 53.9082ZM147.722 49.3027L146.948 49.25C146.702 48.5938 146.286 48.2656 145.7 48.2656C145.442 48.2656 145.167 48.3242 144.874 48.4414C144.593 48.5586 144.358 48.6816 144.171 48.8105C143.983 48.9277 143.737 49.1035 143.433 49.3379C143.433 49.502 143.427 50.0352 143.415 50.9375C143.415 51.8398 143.421 52.8418 143.433 53.9434C143.456 55.0449 143.479 55.6367 143.503 55.7188C143.397 56.0703 143.192 56.2461 142.888 56.2461C142.677 56.2461 142.472 56.1641 142.272 56C142.085 55.8242 141.968 55.6133 141.921 55.3672C142.144 51.6055 142.343 48.7637 142.519 46.8418L143.31 47.0176L143.362 48.1953C144.183 47.5156 144.886 47.1758 145.472 47.1758C146.116 47.1758 146.655 47.3223 147.089 47.6152C147.534 47.9082 147.757 48.3359 147.757 48.8984C147.757 49.0742 147.745 49.209 147.722 49.3027ZM154.683 56.334L153.698 56.5273L153.487 42.6406C153.815 42.4766 154.261 42.3418 154.823 42.2363C154.812 42.5059 154.806 42.9277 154.806 43.502C154.806 44.7676 154.853 46.0215 154.946 47.2637C155.509 46.9473 156.106 46.7891 156.739 46.7891C157.396 46.7891 157.952 46.9473 158.409 47.2637C158.866 47.5684 159.206 47.9902 159.429 48.5293C159.651 49.0684 159.81 49.6133 159.903 50.1641C159.997 50.7148 160.044 51.3125 160.044 51.957C160.044 52.6602 159.933 53.3398 159.71 53.9961C159.499 54.6406 159.124 55.209 158.585 55.7012C158.058 56.1816 157.413 56.4219 156.651 56.4219C155.995 56.4219 155.345 56.2168 154.7 55.8066C154.688 55.9238 154.683 56.0996 154.683 56.334ZM154.894 48.9863L154.841 54.6465C154.911 54.8574 155.128 55.0273 155.491 55.1562C155.866 55.2734 156.271 55.332 156.704 55.332C157.114 55.332 157.454 55.2559 157.724 55.1035C158.005 54.9395 158.216 54.7109 158.356 54.418C158.497 54.1133 158.591 53.7969 158.638 53.4688C158.696 53.1406 158.726 52.7656 158.726 52.3438C158.726 51.9102 158.702 51.4883 158.655 51.0781C158.608 50.6562 158.515 50.1992 158.374 49.707C158.233 49.2031 158.005 48.7988 157.688 48.4941C157.372 48.1895 156.979 48.0371 156.511 48.0371C156.171 48.0371 155.849 48.125 155.544 48.3008C155.251 48.4648 155.034 48.6934 154.894 48.9863ZM161.854 43.9414L162.663 44.1172L163.05 55.4902C162.944 55.8535 162.739 56.0352 162.435 56.0352C162.224 56.0352 162.019 55.9531 161.819 55.7891C161.632 55.6133 161.515 55.4023 161.468 55.1562L161.854 43.9414ZM164.491 52.2559C164.491 51.7871 164.538 51.2656 164.632 50.6914C164.737 50.1172 164.89 49.5137 165.089 48.8809C165.288 48.248 165.587 47.7207 165.985 47.2988C166.384 46.877 166.847 46.666 167.374 46.666C168.499 46.666 169.401 47.1758 170.081 48.1953C170.761 49.2031 171.101 50.3281 171.101 51.5703C171.101 52.0977 171.042 52.625 170.925 53.1523C170.819 53.668 170.649 54.1777 170.415 54.6816C170.181 55.1855 169.841 55.6074 169.396 55.9473C168.962 56.2754 168.452 56.4629 167.866 56.5098C166.788 56.3691 165.956 55.9121 165.37 55.1387C164.784 54.3535 164.491 53.3926 164.491 52.2559ZM167.479 47.5801C167.069 47.627 166.724 48.002 166.442 48.7051C166.161 49.4082 165.979 50.0938 165.897 50.7617C165.815 51.418 165.774 51.998 165.774 52.502C165.774 53.1582 165.974 53.7676 166.372 54.3301C166.782 54.8809 167.239 55.1562 167.743 55.1562C168.106 55.1562 168.435 55.0156 168.728 54.7344C169.021 54.4531 169.249 54.1074 169.413 53.6973C169.589 53.2754 169.718 52.8535 169.8 52.4316C169.894 52.0098 169.94 51.6348 169.94 51.3066C169.94 50.3457 169.724 49.5078 169.29 48.793C168.856 48.0781 168.253 47.6738 167.479 47.5801ZM178.448 47.2812L178.36 48.0371C177.868 47.9668 177.446 47.9316 177.095 47.9316C176.286 47.9316 175.618 48.1777 175.091 48.6699C174.563 49.1504 174.2 49.7246 174.001 50.3926C173.813 51.0488 173.72 51.7812 173.72 52.5898C173.72 52.9648 173.743 53.2988 173.79 53.5918C173.837 53.8848 173.919 54.1719 174.036 54.4531C174.165 54.7344 174.358 54.957 174.616 55.1211C174.886 55.2734 175.214 55.3496 175.601 55.3496C176.116 55.3496 176.772 55.25 177.569 55.0508C177.815 54.957 178.009 54.9102 178.149 54.9102C178.431 54.9102 178.601 55.2383 178.659 55.8945C177.628 56.2227 176.673 56.3867 175.794 56.3867C174.517 56.3867 173.649 56.0762 173.192 55.4551C172.747 54.8223 172.524 53.8027 172.524 52.3965C172.524 51.5762 172.577 50.8613 172.683 50.252C172.8 49.6309 172.999 49.0566 173.28 48.5293C173.562 47.9902 173.966 47.5801 174.493 47.2988C175.032 47.0176 175.688 46.877 176.462 46.877C177.329 46.877 177.991 47.0117 178.448 47.2812ZM185.972 56L184.354 55.9648C183.921 55.5312 183.323 54.834 182.562 53.873C181.812 52.9004 181.337 52.3027 181.138 52.0801V55.7012C181.032 56.0527 180.827 56.2285 180.522 56.2285C180.312 56.2285 180.106 56.1465 179.907 55.9824C179.72 55.8066 179.603 55.5957 179.556 55.3496C179.591 54.1426 179.608 52.1387 179.608 49.3379C179.608 46.5371 179.632 44.5273 179.679 43.3086L180.751 43.5371C180.763 44.0059 180.78 44.9668 180.804 46.4199C180.839 47.873 180.868 48.957 180.892 49.6719L185.163 46.543L185.462 47.334C184.349 48.1426 183.042 49.2852 181.542 50.7617C181.858 51.1016 182.556 51.9336 183.634 53.2578C184.724 54.5703 185.503 55.4844 185.972 56ZM192.985 54.2949L193.161 55.0684C192.646 55.2559 191.878 55.4668 190.858 55.7012C189.851 55.9238 189.101 56.0352 188.608 56.0352C188.104 56.0352 187.665 55.8711 187.29 55.543C186.915 55.2031 186.634 54.7754 186.446 54.2598C186.259 53.7324 186.118 53.2168 186.024 52.7129C185.942 52.1973 185.901 51.6934 185.901 51.2012C185.901 48.2715 187.226 46.8066 189.874 46.8066C190.507 46.8066 191.063 47.0117 191.544 47.4219C192.024 47.8203 192.265 48.3418 192.265 48.9863C192.265 49.3379 192.165 49.6484 191.966 49.918C191.778 50.1875 191.544 50.4043 191.263 50.5684C190.993 50.7207 190.642 50.8613 190.208 50.9902C189.786 51.1191 189.411 51.2129 189.083 51.2715C188.755 51.3301 188.362 51.3945 187.905 51.4648C187.448 51.5352 187.132 51.5879 186.956 51.623C186.968 51.9629 186.985 52.2617 187.009 52.5195C187.044 52.7773 187.103 53.0586 187.185 53.3633C187.278 53.6562 187.396 53.9023 187.536 54.1016C187.688 54.2891 187.894 54.4473 188.151 54.5762C188.409 54.7051 188.714 54.7695 189.065 54.7695C189.487 54.7695 190.003 54.7344 190.612 54.6641C191.222 54.582 191.761 54.5 192.229 54.418C192.71 54.3359 192.962 54.2949 192.985 54.2949ZM187.026 50.5332C188.62 50.0762 189.927 49.5957 190.946 49.0918C190.864 48.7051 190.753 48.4238 190.612 48.248C190.472 48.0723 190.261 47.9844 189.979 47.9844C189.265 47.9844 188.614 48.2305 188.028 48.7227C187.454 49.2148 187.12 49.8184 187.026 50.5332ZM199.665 49.3027L198.892 49.25C198.646 48.5938 198.229 48.2656 197.644 48.2656C197.386 48.2656 197.11 48.3242 196.817 48.4414C196.536 48.5586 196.302 48.6816 196.114 48.8105C195.927 48.9277 195.681 49.1035 195.376 49.3379C195.376 49.502 195.37 50.0352 195.358 50.9375C195.358 51.8398 195.364 52.8418 195.376 53.9434C195.399 55.0449 195.423 55.6367 195.446 55.7188C195.341 56.0703 195.136 56.2461 194.831 56.2461C194.62 56.2461 194.415 56.1641 194.216 56C194.028 55.8242 193.911 55.6133 193.864 55.3672C194.087 51.6055 194.286 48.7637 194.462 46.8418L195.253 47.0176L195.306 48.1953C196.126 47.5156 196.829 47.1758 197.415 47.1758C198.06 47.1758 198.599 47.3223 199.032 47.6152C199.478 47.9082 199.7 48.3359 199.7 48.8984C199.7 49.0742 199.688 49.209 199.665 49.3027Z" fill="black"/>
</g>
<g id="Ellipse 1" style="mix-blend-mode:multiply" filter="url(#filter0_d)">
<ellipse cx="46" cy="34.5" rx="33" ry="31.5" fill="#FFF3F3" fill-opacity="0.85"/>
<path d="M78.3423 28.2115C78.6315 29.5741 78.8286 30.9685 78.927 32.3886L76.433 32.5616C76.4774 33.2019 76.5 33.8482 76.5 34.5C76.5 35.1518 76.4774 35.7981 76.433 36.4384L78.927 36.6114C78.8286 38.0315 78.6315 39.426 78.3423 40.7885L75.8968 40.2694C75.6268 41.5414 75.2692 42.7833 74.8301 43.9894L77.1792 44.8447C76.6959 46.1723 76.1221 47.4596 75.4649 48.6997L73.2559 47.529C72.6496 48.673 71.9656 49.7745 71.2099 50.827L73.2408 52.285C72.4209 53.427 71.5242 54.5149 70.5579 55.5418L68.7373 53.8285C67.8501 54.7713 66.8986 55.6592 65.8891 56.4856L67.4728 58.42C66.3885 59.3078 65.2431 60.1295 64.0435 60.8787L62.7192 58.7582C61.6214 59.4439 60.474 60.0641 59.2831 60.6128L60.3295 62.8833C59.061 63.4679 57.7474 63.9773 56.3949 64.4054L55.6405 62.022C54.4093 62.4117 53.1429 62.7289 51.8467 62.9681L52.3004 65.4266C50.9324 65.679 49.5343 65.8508 48.1117 65.9365L47.9613 63.4411C47.3131 63.4801 46.6591 63.5 46 63.5C45.3409 63.5 44.6869 63.4801 44.0387 63.4411L43.8883 65.9365C42.4657 65.8508 41.0676 65.679 39.6996 65.4266L40.1533 62.9681C38.8571 62.7289 37.5907 62.4117 36.3595 62.022L35.6051 64.4054C34.2526 63.9773 32.939 63.4679 31.6705 62.8833L32.7169 60.6128C31.526 60.0641 30.3786 59.4439 29.2808 58.7582L27.9565 60.8787C26.7569 60.1295 25.6115 59.3078 24.5272 58.42L26.1109 56.4856C25.1014 55.6592 24.1499 54.7713 23.2627 53.8285L21.4421 55.5418C20.4758 54.5149 19.5791 53.427 18.7592 52.285L20.7901 50.827C20.0344 49.7745 19.3503 48.673 18.7441 47.529L16.5351 48.6996C15.8779 47.4595 15.3041 46.1723 14.8207 44.8447L17.1699 43.9894C16.7308 42.7833 16.3732 41.5414 16.1032 40.2694L13.6577 40.7885C13.3685 39.4259 13.1714 38.0315 13.073 36.6114L15.567 36.4384C15.5226 35.7981 15.5 35.1518 15.5 34.5C15.5 33.8482 15.5226 33.2019 15.567 32.5615L13.073 32.3886C13.1714 30.9685 13.3685 29.574 13.6577 28.2115L16.1032 28.7306C16.3732 27.4586 16.7308 26.2167 17.1699 25.0106L14.8208 24.1553C15.3041 22.8277 15.8779 21.5404 16.5351 20.3003L18.7441 21.471C19.3504 20.327 20.0344 19.2255 20.7901 18.173L18.7592 16.715C19.5791 15.573 20.4758 14.4851 21.4421 13.4582L23.2627 15.1715C24.1499 14.2287 25.1014 13.3408 26.1109 12.5144L24.5272 10.58C25.6115 9.69221 26.7569 8.87049 27.9565 8.12131L29.2808 10.2418C30.3786 9.55614 31.526 8.93595 32.7169 8.38716L31.6705 6.11666C32.939 5.53209 34.2526 5.02271 35.6051 4.5946L36.3595 6.97803C37.5907 6.58831 38.8571 6.27112 40.1533 6.03193L39.6996 3.57344C41.0676 3.321 42.4657 3.14921 43.8883 3.06345L44.0387 5.55892C44.6869 5.51985 45.3409 5.5 46 5.5C46.6591 5.5 47.3131 5.51985 47.9613 5.55892L48.1117 3.06345C49.5343 3.14921 50.9324 3.321 52.3004 3.57344L51.8467 6.03193C53.1429 6.27113 54.4093 6.58831 55.6405 6.97803L56.3949 4.5946C57.7474 5.02272 59.061 5.53209 60.3295 6.11666L59.2831 8.38716C60.474 8.93595 61.6214 9.55614 62.7192 10.2418L64.0435 8.12131C65.2431 8.87049 66.3885 9.69221 67.4728 10.58L65.8891 12.5144C66.8986 13.3408 67.8501 14.2287 68.7373 15.1715L70.5579 13.4582C71.5242 14.4851 72.4209 15.573 73.2408 16.715L71.2099 18.173C71.9656 19.2255 72.6497 20.327 73.2559 21.471L75.4649 20.3004C76.1221 21.5405 76.6959 22.8277 77.1793 24.1553L74.8301 25.0106C75.2692 26.2167 75.6268 27.4586 75.8968 28.7306L78.3423 28.2115Z" stroke="#080908" stroke-width="5" stroke-linejoin="bevel" stroke-dasharray="4 4"/>
</g>
<g id="Line 1" filter="url(#filter1_d)">
<line x1="44.5" y1="13.5" x2="44.5" y2="37.5" stroke="black" stroke-width="3" stroke-linecap="round" stroke-linejoin="bevel"/>
</g>
<g id="Line 2" filter="url(#filter2_d)">
<line x1="1.5" y1="-1.5" x2="19.5" y2="-1.5" transform="matrix(0.706817 0.707397 -0.913688 0.406417 43 39.1364)" stroke="black" stroke-width="3" stroke-linecap="round" stroke-linejoin="bevel"/>
</g>
</g>
<defs>
<filter id="filter0_d" x="9" y="3" width="74" height="71" filterUnits="userSpaceOnUse" color-interpolation-filters="sRGB">
<feFlood flood-opacity="0" result="BackgroundImageFix"/>
<feColorMatrix in="SourceAlpha" type="matrix" values="0 0 0 0 0 0 0 0 0 0 0 0 0 0 0 0 0 0 127 0"/>
<feOffset dy="4"/>
<feGaussianBlur stdDeviation="2"/>
<feColorMatrix type="matrix" values="0 0 0 0 0 0 0 0 0 0 0 0 0 0 0 0 0 0 0.25 0"/>
<feBlend mode="normal" in2="BackgroundImageFix" result="effect1_dropShadow"/>
<feBlend mode="normal" in="SourceGraphic" in2="effect1_dropShadow" result="shape"/>
</filter>
<filter id="filter1_d" x="39" y="12" width="11" height="35" filterUnits="userSpaceOnUse" color-interpolation-filters="sRGB">
<feFlood flood-opacity="0" result="BackgroundImageFix"/>
<feColorMatrix in="SourceAlpha" type="matrix" values="0 0 0 0 0 0 0 0 0 0 0 0 0 0 0 0 0 0 127 0"/>
<feOffset dy="4"/>
<feGaussianBlur stdDeviation="2"/>
<feColorMatrix type="matrix" values="0 0 0 0 0 0 0 0 0 0 0 0 0 0 0 0 0 0 0.25 0"/>
<feBlend mode="normal" in2="BackgroundImageFix" result="effect1_dropShadow"/>
<feBlend mode="normal" in="SourceGraphic" in2="effect1_dropShadow" result="shape"/>
</filter>
<filter id="filter2_d" x="39.6979" y="38.3639" width="24.1884" height="23.1811" filterUnits="userSpaceOnUse" color-interpolation-filters="sRGB">
<feFlood flood-opacity="0" result="BackgroundImageFix"/>
<feColorMatrix in="SourceAlpha" type="matrix" values="0 0 0 0 0 0 0 0 0 0 0 0 0 0 0 0 0 0 127 0"/>
<feOffset dy="4"/>
<feGaussianBlur stdDeviation="2"/>
<feColorMatrix type="matrix" values="0 0 0 0 0 0 0 0 0 0 0 0 0 0 0 0 0 0 0.25 0"/>
<feBlend mode="normal" in2="BackgroundImageFix" result="effect1_dropShadow"/>
<feBlend mode="normal" in="SourceGraphic" in2="effect1_dropShadow" result="shape"/>
</filter>
</defs>
</svg>
